<?xml version="1.0" encoding="UTF-8"?>
<svg version="1.1" xmlns="http://www.w3.org/2000/svg" width="112" height="106">
<path d="M0 0 C2.85746217 1.26998319 4.48137263 2.2838003 6.3125 4.8125 C7.24084633 7.76632924 7.37765935 9.915782 7 13 C5.0625 15.625 5.0625 15.625 3 18 C2.22166466 20.18214568 2.22166466 20.18214568 2 22 C2.928125 21.938125 3.85625 21.87625 4.8125 21.8125 C15.16169302 21.87522238 23.98719292 26.12267419 31.3125 33.25 C35.08764913 39.40209488 37.3753306 45.8163019 38 53 C38.763125 52.95875 39.52625 52.9175 40.3125 52.875 C43 53 43 53 46 55 C46.35644531 57.13891602 46.35644531 57.13891602 46.328125 59.75390625 C46.32296875 60.69041016 46.3178125 61.62691406 46.3125 62.59179688 C46.291875 63.57212891 46.27125 64.55246094 46.25 65.5625 C46.24484375 66.54669922 46.2396875 67.53089844 46.234375 68.54492188 C46.15386542 75.84613458 46.15386542 75.84613458 45 77 C42.66702567 77.04092937 40.33294775 77.04241723 38 77 C37.97421875 77.60328125 37.9484375 78.2065625 37.921875 78.828125 C37.86515625 79.62734375 37.8084375 80.4265625 37.75 81.25 C37.70359375 82.03890625 37.6571875 82.8278125 37.609375 83.640625 C36.78131859 86.84668957 35.60068198 87.95700395 33 90 C29.8125 90.50793457 29.8125 90.50793457 26 90.51757812 C25.30358398 90.5245874 24.60716797 90.53159668 23.88964844 90.53881836 C21.59269068 90.55639196 19.29696979 90.54477919 17 90.53125 C15.40103927 90.53394513 13.80208013 90.53782773 12.203125 90.54284668 C8.85400774 90.54874082 5.50531757 90.54018192 2.15625 90.52148438 C-2.13478591 90.49869435 -6.42482111 90.51181796 -10.71582031 90.53577423 C-14.01700366 90.5502348 -17.31795011 90.54562515 -20.61914062 90.53526306 C-22.20117308 90.53259646 -23.78322711 90.53586322 -25.36523438 90.54518127 C-27.57740163 90.55535179 -29.787953 90.5398419 -32 90.51757812 C-33.258125 90.51439575 -34.51625 90.51121338 -35.8125 90.50793457 C-39.5628336 89.91031133 -40.70415969 88.95654976 -43 86 C-44.4783226 83.04335481 -44.06032783 80.25770263 -44 77 C-46.31 77 -48.62 77 -51 77 C-53.46043369 73.22077386 -53.36710224 69.35956434 -53.375 65 C-53.39949219 64.2884375 -53.42398438 63.576875 -53.44921875 62.84375 C-53.46890091 59.32720364 -53.27479179 57.36870797 -51.1484375 54.515625 C-48.55817156 52.68831012 -47.10446925 52.65505897 -44 53 C-43.96132813 52.1646875 -43.96132813 52.1646875 -43.921875 51.3125 C-43.38252649 44.05581096 -40.99675098 38.99512647 -37 33 C-36.34 33 -35.68 33 -35 33 C-34.79375 32.4225 -34.5875 31.845 -34.375 31.25 C-30.87372168 25.52063548 -24.86810488 24.08543293 -18.703125 22.52734375 C-15.34742854 21.87269198 -12.40332546 21.77311164 -9 22 C-10.05875074 18.59687262 -11.00902154 15.98646769 -13 13 C-13.46797583 8.78821757 -13.46565795 6.71400886 -11.125 3.125 C-7.53413571 -0.46586429 -5.00759994 -0.3394983 0 0 Z M-32 55 C-33.34772903 58.12133744 -33.34772903 58.12133744 -34 61 C-31.05124322 61.2236068 -31.05124322 61.2236068 -28.875 59.9375 C-23.90442178 58.31665928 -18.88598184 59.37133939 -14 61 C-13.67 61.66 -13.34 62.32 -13 63 C-13.2420194 58.88567014 -13.67129009 56.4681626 -16.0625 53.0625 C-19.38381677 50.73051163 -21.10809629 50.3054237 -25.0703125 50.58203125 C-28.25266385 51.27132598 -29.85188271 52.59916303 -32 55 Z M8 55 C7.10944264 58.64182335 7.10944264 58.64182335 7 62 C7.845625 61.505 8.69125 61.01 9.5625 60.5 C13.44294451 58.80671512 15.80900264 58.54280029 20 59 C22.8125 60.4375 22.8125 60.4375 25 62 C25.66 62.33 26.32 62.66 27 63 C26.7579806 58.88567014 26.32870991 56.4681626 23.9375 53.0625 C20.61846212 50.7321117 18.89370581 50.3014682 14.93359375 50.5859375 C11.6855159 51.28148548 10.12948202 52.48333944 8 55 Z " fill="#FDBD5B" transform="translate(60,7)"/>
<path d="M0 0 C-0.25 1.875 -0.25 1.875 -1 4 C-1.93199219 4.433125 -1.93199219 4.433125 -2.8828125 4.875 C-5.47607561 6.25297007 -6.21245927 7.58242668 -7.625 10.125 C-8.8515625 12.3203125 -8.8515625 12.3203125 -10 14 C-10.66 14 -11.32 14 -12 14 C-12.103125 14.639375 -12.20625 15.27875 -12.3125 15.9375 C-14.85605338 27.26787417 -14.85605338 27.26787417 -19.125 30 C-20.07375 30.33 -21.0225 30.66 -22 31 C-24.11925604 33.11925604 -23.41831017 37.6196093 -23.5625 40.5625 C-23.60568359 41.36880859 -23.64886719 42.17511719 -23.69335938 43.00585938 C-23.79975262 45.00368805 -23.90040888 47.0018207 -24 49 C-22.68 49.66 -21.36 50.32 -20 51 C-21.65 50.67 -23.3 50.34 -25 50 C-26.22397713 46.32806862 -26.26111238 42.88916441 -26.3125 39.0625 C-26.35600586 37.98838867 -26.35600586 37.98838867 -26.40039062 36.89257812 C-26.44300426 33.35564656 -26.28807963 31.38796348 -24.15234375 28.51171875 C-21.55965579 26.69072013 -20.1032453 26.65519497 -17 27 C-16.97421875 26.443125 -16.9484375 25.88625 -16.921875 25.3125 C-16.38252649 18.05581096 -13.99675098 12.99512647 -10 7 C-9.34 7 -8.68 7 -8 7 C-7.7525 6.401875 -7.505 5.80375 -7.25 5.1875 C-5.55294333 2.21765083 -3.56508774 0 0 0 Z " fill="#F7D08F" transform="translate(33,33)"/>
<path d="M0 0 C0.66 0 1.32 0 2 0 C1.93940934 1.41782145 1.85045877 2.83444466 1.75 4.25 C1.70359375 5.03890625 1.6571875 5.8278125 1.609375 6.640625 C0.78131859 9.84668957 -0.39931802 10.95700395 -3 13 C-6.1875 13.50793457 -6.1875 13.50793457 -10 13.51757812 C-10.69641602 13.5245874 -11.39283203 13.53159668 -12.11035156 13.53881836 C-14.40730932 13.55639196 -16.70303021 13.54477919 -19 13.53125 C-20.59896073 13.53394513 -22.19791987 13.53782773 -23.796875 13.54284668 C-27.14599226 13.54874082 -30.49468243 13.54018192 -33.84375 13.52148438 C-38.13478591 13.49869435 -42.42482111 13.51181796 -46.71582031 13.53577423 C-50.01700366 13.5502348 -53.31795011 13.54562515 -56.61914062 13.53526306 C-58.20117308 13.53259646 -59.78322711 13.53586322 -61.36523438 13.54518127 C-63.57740163 13.55535179 -65.787953 13.5398419 -68 13.51757812 C-69.258125 13.51439575 -70.51625 13.51121338 -71.8125 13.50793457 C-75.57732486 12.90800212 -76.73248897 12.00727969 -79 9 C-79.33 8.01 -79.66 7.02 -80 6 C-79.34 6 -78.68 6 -78 6 C-78 6.66 -78 7.32 -78 8 C-77.01 8.33 -76.02 8.66 -75 9 C-74.67 9.66 -74.34 10.32 -74 11 C-50.9 11.33 -27.8 11.66 -4 12 C-4 11.34 -4 10.68 -4 10 C-3.34 10 -2.68 10 -2 10 C-1.34 6.7 -0.68 3.4 0 0 Z " fill="#F0BF70" transform="translate(96,84)"/>
<path d="M0 0 C0 1.98 0 3.96 0 6 C-0.61875 5.195625 -1.2375 4.39125 -1.875 3.5625 C-4.70815513 0.14604822 -5.32562876 0.0663316 -9.8125 -0.375 C-13.34703901 -0.33644139 -13.94282646 -0.0437925 -16.9375 2.25 C-19.90748895 6.20998527 -20 8.07509286 -20 13 C-22 11 -22 11 -22.125 7.375 C-22.08375 6.26125 -22.0425 5.1475 -22 4 C-21.34 4 -20.68 4 -20 4 C-19.938125 3.21625 -19.87625 2.4325 -19.8125 1.625 C-19 -1 -19 -1 -16.9375 -2.3125 C-10.29604532 -3.86688301 -5.85793363 -3.51476018 0 0 Z " fill="#F5CD85" transform="translate(47,59)"/>
<path d="M0 0 C2.9375 1.5 2.9375 1.5 5 3 C4.67 3.66 4.34 4.32 4 5 C3.29875 4.67 2.5975 4.34 1.875 4 C-1.34160154 2.88118207 -3.61830655 2.63242462 -7 3 C-8.76873518 4.13790255 -8.76873518 4.13790255 -10 6 C-10.36213568 8.51289675 -10.36213568 8.51289675 -10.1875 11.1875 C-10.16042969 12.08855469 -10.13335937 12.98960938 -10.10546875 13.91796875 C-10.07066406 14.60503906 -10.03585938 15.29210938 -10 16 C-12.58974814 13.73311171 -12.96856311 13.24251316 -13.4375 9.625 C-12.93570355 5.46725796 -11.92413584 3.92413584 -9 1 C-5.93570224 -0.53214888 -3.3834358 -0.22938548 0 0 Z " fill="#F5D293" transform="translate(60,7)"/>
<path d="M0 0 C5.00694167 3.23299378 6.26058289 7.49045872 8 13 C8.5051608 15.3629836 8.79019741 17.58727022 9 20 C10.65 20 12.3 20 14 20 C14 20.33 14 20.66 14 21 C11.36 21 8.72 21 6 21 C5.85304688 19.64455078 5.85304688 19.64455078 5.703125 18.26171875 C5.55359375 17.08222656 5.4040625 15.90273438 5.25 14.6875 C5.11078125 13.51574219 4.9715625 12.34398437 4.828125 11.13671875 C3.88009305 7.54582415 3.01713097 6.94653611 0 5 C-0.25 2.3125 -0.25 2.3125 0 0 Z " fill="#F6CF8C" transform="translate(89,40)"/>
<path d="M0 0 C6.28660266 -0.41910684 12.11614059 0.7232837 18 3 C19.828125 4.60546875 19.828125 4.60546875 21 6 C20.401875 5.814375 19.80375 5.62875 19.1875 5.4375 C16.83591238 4.77906313 16.83591238 4.77906313 14 6 C14 5.01 14 4.02 14 3 C9.38 3 4.76 3 0 3 C0 2.01 0 1.02 0 0 Z " fill="#F7CD89" transform="translate(62,29)"/>
<path d="M0 0 C0.99 0.33 1.98 0.66 3 1 C3 7.93 3 14.86 3 22 C1.35 22.33 -0.3 22.66 -2 23 C-1.34 21.68 -0.68 20.36 0 19 C0.66 19 1.32 19 2 19 C2 13.39 2 7.78 2 2 C1.34 2 0.68 2 0 2 C0 1.34 0 0.68 0 0 Z " fill="#F2CC84" transform="translate(103,61)"/>
<path d="M0 0 C0.66 0 1.32 0 2 0 C1.64989059 8.19256018 1.64989059 8.19256018 -1.0625 11.5625 C-1.701875 12.036875 -2.34125 12.51125 -3 13 C-3.99 12.67 -4.98 12.34 -6 12 C-5.34 12 -4.68 12 -4 12 C-4 11.34 -4 10.68 -4 10 C-3.34 10 -2.68 10 -2 10 C-1.34 6.7 -0.68 3.4 0 0 Z " fill="#F4D48D" transform="translate(96,84)"/>
<path d="M0 0 C1.32 0.66 2.64 1.32 4 2 C3.505 2.5775 3.01 3.155 2.5 3.75 C0.63019987 6.10400629 0.63019987 6.10400629 1 10 C1.66 9.67 2.32 9.34 3 9 C3 10.32 3 11.64 3 13 C1.68 12.67 0.36 12.34 -1 12 C-1.08159574 7.83861737 -0.98248524 4.0527516 0 0 Z " fill="#F7D189" transform="translate(67,58)"/>
<path d="M0 0 C5.67276511 -0.29341888 8.99067246 -0.00559652 14 3 C14 4.98 14 6.96 14 9 C13.401875 8.21625 12.80375 7.4325 12.1875 6.625 C8.49155931 2.18987118 5.57520966 1.63115581 0 1 C0 0.67 0 0.34 0 0 Z " fill="#F6C879" transform="translate(33,56)"/>
<path d="M0 0 C0.66 0 1.32 0 2 0 C1.67 3.3 1.34 6.6 1 10 C-0.46132217 7.07735566 -1.34099246 5.07536854 -2 2 C-1.34 2 -0.68 2 0 2 C0 1.34 0 0.68 0 0 Z " fill="#F6C06D" transform="translate(52,19)"/>
<path d="M0 0 C0.33 0.99 0.66 1.98 1 3 C1.66 3 2.32 3 3 3 C3 3.99 3 4.98 3 6 C4.65 6 6.3 6 8 6 C8 6.33 8 6.66 8 7 C5.36 7 2.72 7 0 7 C0 4.69 0 2.38 0 0 Z " fill="#F9D79C" transform="translate(95,54)"/>
<path d="M0 0 C1.134375 0.020625 2.26875 0.04125 3.4375 0.0625 C2.86 0.289375 2.2825 0.51625 1.6875 0.75 C-1.1288661 2.39288023 -2.64327114 4.45783227 -4.5625 7.0625 C-4.60504356 5.06295254 -4.60330783 3.06208364 -4.5625 1.0625 C-3.5625 0.0625 -3.5625 0.0625 0 0 Z " fill="#F0C47D" transform="translate(12.5625,60.9375)"/>
<path d="M0 0 C0.66 0 1.32 0 2 0 C2 0.66 2 1.32 2 2 C2.99 2.33 3.98 2.66 5 3 C5.33 3.66 5.66 4.32 6 5 C6.99 5.66 7.98 6.32 9 7 C5.33535945 6.5047783 3.29167646 5.9791794 1 3 C0.67 2.01 0.34 1.02 0 0 Z " fill="#F4D092" transform="translate(16,90)"/>
</svg>
